<svg width="11" height="21" viewBox="0 0 11 21" fill="none" xmlns="http://www.w3.org/2000/svg">
<path fill-rule="evenodd" clip-rule="evenodd" d="M10.586 0H7.947C4.983 0 3.06797 2.02992 3.06797 5.16992V7.5498H0.414953C0.359408 7.55058 0.304615 7.5624 0.253637 7.58447C0.202659 7.60654 0.156533 7.63874 0.117956 7.67871C0.0793791 7.71868 0.0490923 7.76565 0.0288446 7.81738C0.00859695 7.86911 -0.00121801 7.92444 -2.50084e-05 7.97998V11.4302C-0.00121801 11.4857 0.00859695 11.5406 0.0288446 11.5923C0.0490923 11.644 0.0793791 11.6915 0.117956 11.7314C0.156533 11.7714 0.202659 11.8031 0.253637 11.8252C0.304615 11.8473 0.359408 11.8591 0.414953 11.8599H3.06699V20.5698C3.0658 20.6254 3.07561 20.6807 3.09586 20.7324C3.11611 20.7842 3.1464 20.8316 3.18497 20.8716C3.22355 20.9116 3.26961 20.9433 3.32059 20.9653C3.37157 20.9874 3.42642 20.9992 3.48197 21H6.94297C6.99851 20.9992 7.05337 20.9874 7.10435 20.9653C7.15532 20.9433 7.20145 20.9116 7.24003 20.8716C7.2786 20.8316 7.30889 20.7842 7.32914 20.7324C7.34939 20.6807 7.35914 20.6254 7.35795 20.5698V11.8599H10.458C10.5135 11.8591 10.5684 11.8473 10.6194 11.8252C10.6703 11.8031 10.7164 11.7714 10.755 11.7314C10.7936 11.6915 10.8238 11.644 10.8441 11.5923C10.8643 11.5406 10.8742 11.4857 10.873 11.4302V7.97998C10.8725 7.86798 10.8288 7.76069 10.751 7.68018C10.7133 7.64003 10.668 7.60778 10.6177 7.58545C10.5673 7.56312 10.513 7.5508 10.458 7.5498H7.35795V5.52979C7.30706 5.32896 7.30904 5.11879 7.36368 4.91895C7.41832 4.71911 7.52378 4.53665 7.66978 4.38965C7.81577 4.24265 7.99729 4.13609 8.19675 4.08008C8.39621 4.02407 8.60679 4.02032 8.80796 4.06982H10.585C10.6966 4.06643 10.8024 4.01979 10.8799 3.93945C10.9574 3.85912 11.0005 3.75178 11 3.64014V0.430176C11.0006 0.318702 10.9576 0.211164 10.8803 0.130859C10.803 0.0505547 10.6974 0.00364487 10.586 0V0Z" fill="#6E774A"/>
</svg>
