<svg width="22" height="18" viewBox="0 0 22 18" fill="none" xmlns="http://www.w3.org/2000/svg">
<path fill-rule="evenodd" clip-rule="evenodd" d="M21.393 0.330084C20.5061 0.858532 19.5366 1.23365 18.525 1.43995C18.1057 0.985062 17.5965 0.622392 17.0297 0.374517C16.4628 0.126643 15.8507 -0.000976937 15.232 5.63084e-06C14.0318 0.00477079 12.8824 0.485303 12.0362 1.33643C11.1899 2.18756 10.7159 3.33981 10.718 4.54004C10.7172 4.89004 10.7565 5.23902 10.835 5.58008C9.0379 5.4873 7.28056 5.01628 5.67798 4.19776C4.0754 3.37924 2.66363 2.23165 1.53497 0.830084C0.959095 1.83175 0.783361 3.01429 1.04303 4.14014C1.3027 5.26599 1.97858 6.25166 2.935 6.89991C2.21833 6.87321 1.51805 6.6781 0.890991 6.33008V6.37989C0.887531 7.42672 1.24605 8.44258 1.90576 9.25538C2.56548 10.0682 3.48583 10.6279 4.51099 10.8398C4.12323 10.9443 3.7236 10.9983 3.32202 11C3.03687 10.9988 2.75235 10.972 2.47198 10.9199C2.75832 11.8198 3.31835 12.6079 4.07391 13.1743C4.82948 13.7408 5.74296 14.0575 6.68701 14.0801C5.09047 15.336 3.11829 16.0191 1.08698 16.02C0.727132 16.0203 0.367594 16.0002 0.0100098 15.96C1.95439 17.2113 4.20095 17.9135 6.51184 17.9922C8.82274 18.0709 11.1119 17.5233 13.137 16.4072C15.162 15.2911 16.8476 13.6482 18.0151 11.6523C19.1826 9.65652 19.7886 7.38198 19.769 5.06983L19.754 4.47999C20.6405 3.8379 21.4046 3.04186 22.01 2.12989C21.1871 2.49788 20.3138 2.74079 19.419 2.8501C20.3575 2.27353 21.0579 1.37933 21.393 0.330084V0.330084Z" fill="#6E774A"/>
</svg>

