<svg width="27" height="19" viewBox="0 0 27 19" fill="none" xmlns="http://www.w3.org/2000/svg">
<path fill-rule="evenodd" clip-rule="evenodd" d="M27 4.06006C27.0021 3.52882 26.8995 3.00232 26.6981 2.51074C26.4967 2.01917 26.2004 1.57186 25.8262 1.19482C25.4519 0.817791 25.007 0.518529 24.517 0.313477C24.0269 0.108424 23.5012 0.00183493 22.97 0H4.04005C2.96608 0.00317846 1.93723 0.432564 1.1797 1.19385C0.422162 1.95513 -0.00211713 2.98609 7.94451e-06 4.06006V14.9399C-0.00211713 16.0139 0.422162 17.0449 1.1797 17.8062C1.93723 18.5674 2.96608 18.9968 4.04005 19H22.97C23.5012 18.9982 24.0269 18.8916 24.517 18.6865C25.007 18.4815 25.4519 18.1822 25.8262 17.8052C26.2004 17.4281 26.4967 16.9808 26.6981 16.4893C26.8995 15.9977 27.0021 15.4712 27 14.9399V4.06006ZM10.8001 14.0898V3.87012L18.52 8.97998L10.8001 14.0898Z" fill="#6E774A"/>
</svg>
