<svg width="30" height="16" viewBox="0 0 30 16" fill="none" xmlns="http://www.w3.org/2000/svg">
<path fill-rule="evenodd" clip-rule="evenodd" d="M29.669 0.269989C29.4693 0.0726158 29.1998 -0.0380554 28.919 -0.0380554C28.6382 -0.0380554 28.3687 0.0726158 28.169 0.269989L14.986 13.44L1.76898 0.269989C1.57007 0.0710767 1.30029 -0.04068 1.01898 -0.0406799C0.737677 -0.0406799 0.467894 0.0710767 0.268982 0.269989C0.0700696 0.468901 -0.041687 0.738685 -0.041687 1.01999C-0.041687 1.30129 0.0700697 1.57108 0.268982 1.76999L14.201 15.66C14.2983 15.7601 14.415 15.8392 14.5439 15.8925C14.6729 15.9458 14.8114 15.9722 14.951 15.97C15.2321 15.9695 15.5016 15.8581 15.701 15.66L29.633 1.76999C29.7365 1.67546 29.8198 1.56095 29.8779 1.43338C29.936 1.30581 29.9677 1.16782 29.9711 1.02768C29.9744 0.887539 29.9494 0.748163 29.8975 0.61795C29.8456 0.487738 29.7679 0.369372 29.669 0.269989V0.269989Z" fill="white"/>
</svg>
