<svg width="20" height="10" viewBox="0 0 20 10" fill="none" xmlns="http://www.w3.org/2000/svg">
<path fill-rule="evenodd" clip-rule="evenodd" d="M19.86 4.66099L15.3199 0.133954C15.2416 0.042617 15.1301 -0.0138396 15.0101 -0.0230281C14.8901 -0.0322166 14.7714 0.00666494 14.6801 0.0850041C14.6341 0.123103 14.5963 0.170026 14.5688 0.223005C14.5414 0.275983 14.5248 0.333922 14.5201 0.393415C14.5155 0.452907 14.5227 0.512708 14.5416 0.569318C14.5605 0.625929 14.5906 0.678216 14.63 0.723005C14.6433 0.742453 14.6603 0.759051 14.6801 0.771955L18.45 4.53001H0.449951C0.339557 4.54278 0.237747 4.59566 0.163818 4.67863C0.0898893 4.7616 0.0490723 4.86883 0.0490723 4.97996C0.0490723 5.09109 0.0898893 5.19838 0.163818 5.28135C0.237747 5.36433 0.339557 5.41721 0.449951 5.42997H18.45L14.6801 9.18297C14.6341 9.22115 14.5962 9.26821 14.5687 9.32127C14.5412 9.37433 14.5247 9.43235 14.52 9.49193C14.5154 9.5515 14.5227 9.61138 14.5416 9.66807C14.5605 9.72476 14.5905 9.77713 14.63 9.822C14.7085 9.91311 14.82 9.96938 14.9399 9.97856C15.0599 9.98774 15.1785 9.94904 15.27 9.87095C15.29 9.85595 15.2999 9.839 15.3199 9.822L19.86 5.29496C19.9019 5.25349 19.9352 5.20411 19.9579 5.1497C19.9806 5.09529 19.9923 5.03697 19.9923 4.97801C19.9923 4.91905 19.9806 4.86067 19.9579 4.80626C19.9352 4.75184 19.9019 4.70247 19.86 4.66099V4.66099Z" fill="white"/>
</svg>
