<svg width="130" height="102" viewBox="0 0 130 102" fill="none" xmlns="http://www.w3.org/2000/svg">
<path fill-rule="evenodd" clip-rule="evenodd" d="M1 1H131V101H1V1Z" stroke="#F7F8F3"/>
<path fill-rule="evenodd" clip-rule="evenodd" d="M46.264 50.3564L55.353 41.3164C55.679 40.9364 56.253 40.8924 56.634 41.2184C57.015 41.5424 57.06 42.1134 56.733 42.4924C56.703 42.5274 56.67 42.5604 56.634 42.5904L49.1 50.0944H85.081C85.583 50.0944 85.99 50.4984 85.99 50.9984C85.99 51.4974 85.583 51.9024 85.081 51.9024H49.1L56.634 59.3964C57.015 59.7214 57.06 60.2924 56.733 60.6714C56.407 61.0504 55.833 61.0954 55.452 60.7704C55.416 60.7394 55.383 60.7074 55.353 60.6714L46.264 51.6314C45.912 51.2784 45.912 50.7084 46.264 50.3564Z" fill="white"/>
</svg>
