<svg width="132" height="102" viewBox="0 0 132 102" fill="none" xmlns="http://www.w3.org/2000/svg">
<path fill-rule="evenodd" clip-rule="evenodd" d="M1 1H131V101H1V1Z" stroke="#F7F8F3"/>
<path fill-rule="evenodd" clip-rule="evenodd" d="M85.726 51.6313L76.637 60.6713C76.311 61.0513 75.737 61.0953 75.356 60.7693C74.975 60.4453 74.93 59.8743 75.257 59.4953C75.287 59.4603 75.32 59.4273 75.356 59.3973L82.89 51.8933H46.909C46.407 51.8933 46 51.4893 46 50.9893C46 50.4903 46.407 50.0853 46.909 50.0853H82.89L75.356 42.5913C74.975 42.2663 74.93 41.6953 75.257 41.3163C75.583 40.9373 76.157 40.8923 76.538 41.2173C76.574 41.2483 76.607 41.2803 76.637 41.3163L85.726 50.3563C86.078 50.7093 86.078 51.2793 85.726 51.6313Z" fill="white"/>
</svg>
