<svg width="40" height="20" viewBox="0 0 40 20" fill="none" xmlns="http://www.w3.org/2000/svg">
<path fill-rule="evenodd" clip-rule="evenodd" d="M0.242981 9.37014L9.33197 0.330104C9.4087 0.23705 9.50324 0.16016 9.60999 0.104029C9.71674 0.0478986 9.83358 0.0136687 9.95374 0.00319935C10.0739 -0.00726998 10.1949 0.00617218 10.3098 0.0429943C10.4246 0.0798164 10.531 0.139174 10.6226 0.217555C10.7143 0.295936 10.7894 0.3918 10.8436 0.499537C10.8978 0.607274 10.9301 0.724676 10.9384 0.844996C10.9467 0.965317 10.931 1.08605 10.8921 1.20022C10.8532 1.31439 10.792 1.41979 10.712 1.51004C10.682 1.54004 10.6487 1.57012 10.612 1.60012L3.078 9.11013H39.059C39.299 9.11013 39.5292 9.20531 39.6989 9.37503C39.8686 9.54475 39.964 9.7749 39.964 10.0149C39.964 10.2549 39.8686 10.4853 39.6989 10.6551C39.5292 10.8248 39.299 10.9199 39.059 10.9199H3.07898L10.613 18.4099C10.703 18.4867 10.777 18.5807 10.8308 18.6861C10.8846 18.7915 10.917 18.9062 10.9263 19.0242C10.9356 19.1422 10.9216 19.2608 10.8849 19.3733C10.8483 19.4858 10.7899 19.59 10.713 19.68C10.6357 19.7709 10.541 19.8459 10.4347 19.9002C10.3283 19.9545 10.2123 19.9871 10.0933 19.9964C9.97421 20.0057 9.85452 19.9913 9.74103 19.9541C9.62754 19.917 9.52254 19.8579 9.43201 19.7801C9.39476 19.7509 9.36114 19.7172 9.33197 19.68L0.242981 10.6399C0.0750506 10.4713 -0.0192261 10.2429 -0.0192261 10.0049C-0.0192261 9.7669 0.0750506 9.53881 0.242981 9.37014Z" fill="#6E774A"/>
</svg>

