<svg width="40" height="21" viewBox="0 0 40 21" fill="none" xmlns="http://www.w3.org/2000/svg">
<path fill-rule="evenodd" clip-rule="evenodd" d="M39.73 9.41012L30.64 0.330043C30.5633 0.236989 30.4687 0.160099 30.362 0.103968C30.2552 0.0478375 30.1384 0.0136077 30.0182 0.00313832C29.8981 -0.00733102 29.7771 0.00611114 29.6622 0.0429332C29.5474 0.0797553 29.441 0.139113 29.3494 0.217494C29.2577 0.295875 29.1826 0.391739 29.1284 0.499476C29.0741 0.607213 29.0419 0.724615 29.0336 0.844935C29.0253 0.965256 29.041 1.08623 29.0799 1.2004C29.1188 1.31458 29.18 1.41973 29.26 1.50997C29.2882 1.54812 29.3218 1.58193 29.36 1.61007L36.89 9.15011H0.908997C0.668976 9.15011 0.438763 9.24528 0.269043 9.415C0.0993225 9.58472 0.00402832 9.81512 0.00402832 10.0551C0.00402832 10.2952 0.0993225 10.5253 0.269043 10.695C0.438763 10.8648 0.668976 10.9599 0.908997 10.9599H36.89L29.36 18.49C29.2669 18.5667 29.1901 18.6613 29.134 18.768C29.0778 18.8748 29.0436 18.9916 29.0331 19.1118C29.0226 19.2319 29.0362 19.3529 29.073 19.4677C29.1098 19.5826 29.1692 19.6891 29.2476 19.7807C29.3259 19.8724 29.4218 19.9475 29.5295 20.0017C29.6373 20.0559 29.7547 20.0881 29.8751 20.0964C29.9954 20.1047 30.1161 20.0889 30.2303 20.05C30.3445 20.0111 30.4497 19.9501 30.54 19.8701C30.5758 19.8393 30.6092 19.8058 30.64 19.77L39.73 10.6899C39.8983 10.5194 39.9927 10.2896 39.9927 10.05C39.9927 9.81044 39.8983 9.58062 39.73 9.41012V9.41012Z" fill="#6E774A"/>
</svg>
