<svg width="16" height="16" viewBox="0 0 16 16" fill="none" xmlns="http://www.w3.org/2000/svg">
<path fill-rule="evenodd" clip-rule="evenodd" d="M15.292 5.14011L10.885 4.72995C10.7484 4.71639 10.6179 4.66677 10.5069 4.58591C10.396 4.50504 10.3087 4.3959 10.254 4.26999L8.67497 0.47995C8.61681 0.342376 8.51938 0.225076 8.39488 0.142548C8.27039 0.0600195 8.12433 0.0160828 7.97496 0.0160828C7.8256 0.0160828 7.67954 0.0600195 7.55504 0.142548C7.43054 0.225076 7.33318 0.342376 7.27501 0.47995L5.70897 4.26999C5.65571 4.39689 5.56878 4.50679 5.45757 4.58786C5.34635 4.66894 5.2151 4.71807 5.07799 4.72995L0.671008 5.14011C0.525104 5.15356 0.386277 5.2094 0.271716 5.30075C0.157154 5.3921 0.0718326 5.51478 0.0262321 5.65402C-0.0193683 5.79327 -0.023211 5.94278 0.0151238 6.0842C0.0534585 6.22562 0.13231 6.35277 0.241991 6.44992L3.56298 9.34006C3.6669 9.42739 3.7444 9.54191 3.78679 9.67087C3.82919 9.79982 3.83479 9.93808 3.80297 10.07L2.80297 14.1201C2.76993 14.2644 2.77997 14.4152 2.83184 14.5539C2.8837 14.6926 2.97514 14.8131 3.09477 14.9004C3.21441 14.9876 3.35701 15.0379 3.50493 15.0449C3.65286 15.0519 3.7996 15.0154 3.92699 14.9399L7.601 12.81C7.71765 12.7412 7.8506 12.705 7.98601 12.705C8.12142 12.705 8.25431 12.7412 8.37096 12.81L12.046 14.9399C12.1732 15.0166 12.3202 15.0541 12.4686 15.0476C12.6169 15.041 12.7601 14.9909 12.8801 14.9033C13 14.8157 13.0914 14.6947 13.1428 14.5554C13.1942 14.416 13.2033 14.2646 13.169 14.1201L12.185 10.07C12.1528 9.93818 12.1581 9.79986 12.2004 9.67087C12.2426 9.54187 12.3201 9.42736 12.424 9.34006L15.745 6.44992C15.8515 6.3495 15.9268 6.22052 15.9618 6.07834C15.9967 5.93616 15.9899 5.78702 15.942 5.64865C15.8942 5.51028 15.8074 5.38853 15.6921 5.29831C15.5768 5.20809 15.4378 5.15326 15.292 5.14011Z" fill="#6E774A"/>
</svg>
