
<svg width="20" height="20" viewBox="0 0 20 20" fill="none" xmlns="http://www.w3.org/2000/svg">
<path fill-rule="evenodd" clip-rule="evenodd" d="M19.81 18.98L14.95 14.12C16.394 12.4544 17.1349 10.2932 17.0166 8.09194C16.8984 5.8907 15.9302 3.82133 14.3161 2.31997C12.702 0.818603 10.5681 0.00251235 8.36405 0.0436918C6.16002 0.0848712 4.05804 0.980102 2.50113 2.54071C0.944228 4.10132 0.0540374 6.20541 0.0180995 8.40954C-0.0178383 10.6137 0.803306 12.7457 2.3085 14.3562C3.8137 15.9667 5.88531 16.93 8.08683 17.043C10.2883 17.156 12.4478 16.4099 14.11 14.962L18.97 19.822C19.0819 19.9331 19.2324 19.9965 19.39 19.999C19.4684 19.9997 19.5461 19.9844 19.6183 19.954C19.6906 19.9235 19.7558 19.8786 19.81 19.822C19.9205 19.7098 19.9825 19.5585 19.9825 19.401C19.9825 19.2435 19.9205 19.0922 19.81 18.98V18.98ZM1.18997 8.528C1.19096 7.07848 1.62174 5.66179 2.42777 4.45704C3.2338 3.25228 4.37895 2.31355 5.71842 1.75953C7.05789 1.20551 8.53149 1.06106 9.95304 1.34446C11.3746 1.62785 12.6802 2.32636 13.7049 3.35168C14.7295 4.37699 15.4271 5.68308 15.7095 7.10483C15.9919 8.52657 15.8465 10.0001 15.2915 11.3392C14.7366 12.6783 13.7971 13.8228 12.5918 14.628C11.3865 15.4332 9.96958 15.863 8.52005 15.863C6.5758 15.8609 4.71176 15.0872 3.33744 13.712C1.96311 12.3367 1.19077 10.4723 1.18997 8.528V8.528Z" fill="white"/>
</svg>
